# xmcd CD database file
#
# Track frame offsets:
#	150
#	23097
#	44502
#
# Disc length: 834 seconds
#
# Revision: 0
# Processed by: cddbd v1.5PL3 Copyright (c) Steve Scherf et al.
# Submitted via: CDex 1.51
#
DISCID=1d034003
DTITLE=湘南乃風 - 応援歌／風
DYEAR=2004
DGENRE=JPop
TTITLE0=応援歌 feat.MOOMIN
TTITLE1=風
TTITLE2=Wild Speed -山嵐 Remix-
EXTD=YEAR: 2004
EXTT0=
EXTT1=
EXTT2=
PLAYORDER=
